Coordinates
nRows=107
nColumns=2
inDegrees=yes
endheader
time	ankle_angle_r	
3.14919	 -0.468956	
3.22077	 -0.468748	
3.29234	 -0.405694	
3.36391	 -0.427246	
3.43548	 -0.447966	
3.50706	 -0.437398	
3.57863	 -0.416616	
3.6502	 -0.402251	
3.72177	 -0.442505	
3.79335	 -0.433185	
3.86492	 -0.418134	
3.93649	 -0.396729	
4.00806	 -0.505673	
4.07964	 -0.440788	
4.15121	 -0.473022	
4.22278	 -0.503540	
4.29435	 -0.534526	
4.36593	 -0.549264	
4.4375	 -0.457400	
4.50907	 -0.510780	
4.58065	 -0.480054	
4.65222	 -0.464587	
4.72379	 -0.492869	
4.79536	 -0.442505	
4.86694	 -0.518799	
4.93851	 -0.415263	
5.01008	 -0.433030	
5.08165	 -0.503540	
5.15323	 -0.508064	
5.2248	 -0.478182	
5.29637	 -0.457764	
5.36794	 -0.509312	
5.43952	 -0.479210	
5.51109	 -0.399005	
5.58266	 -0.424346	
5.65423	 -0.430771	
5.72581	 -0.461912	
5.79738	 -0.373202	
5.86895	 -0.418562	
5.94052	 -0.442505	
6.0121	 -0.393857	
6.08367	 -0.409324	
6.15524	 -0.396729	
6.22681	 -0.455516	
6.29839	 -0.394689	
6.36996	 -0.438843	
6.44153	 -0.476269	
6.5131	 -0.457764	
6.58468	 -0.517592	
6.65625	 -0.442505	
6.72782	 -0.518799	
6.7994	 -0.518799	
6.87097	 -0.487531	
6.94254	 -0.503540	
7.01411	 -0.488322	
7.08569	 -0.518799	
7.15726	 -0.427246	
7.22883	 -0.397394	
7.3004	 -0.488281	
7.37198	 -0.473022	
7.44355	 -0.502251	
7.51512	 -0.476017	
7.58669	 -0.547611	
7.65827	 -0.492108	
7.72984	 -0.407745	
7.80141	 -0.514140	
7.87298	 -0.503540	
7.94456	 -0.445250	
8.01613	 -0.494680	
8.0877	 -0.503540	
8.15927	 -0.518799	
8.23085	 -0.430823	
8.30242	 -0.488281	
8.37399	 -0.492275	
8.44556	 -0.446706	
8.51714	 -0.431656	
8.58871	 -0.427246	
8.66028	 -0.427246	
8.73185	 -0.422213	
8.80343	 -0.416763	
8.875	 -0.421797	
8.94657	 -0.456050	
9.01815	 -0.429584	
9.08972	 -0.433320	
9.16129	 -0.451482	
9.23286	 -0.503540	
9.30444	 -0.464461	
9.37601	 -0.474470	
9.44758	 -0.473022	
9.51915	 -0.541995	
9.59073	 -0.457764	
9.6623	 -0.465285	
9.73387	 -0.488281	
9.80544	 -0.517750	
9.87702	 -0.396729	
9.94859	 -0.427246	
10.0202	 -0.455467	
10.0917	 -0.464037	
10.1633	 -0.442505	
10.2349	 -0.411987	
10.3065	 -0.442505	
10.378	 -0.432687	
10.4496	 -0.396729	
10.5212	 -0.427246	
10.5927	 -0.457764	
10.6643	 -0.488281	
10.7359	 -0.473022	
